<svg width="124" height="100" viewBox="0 0 124 100" fill="none" xmlns="http://www.w3.org/2000/svg">
<path d="M99.1343 28.6125C103.171 34.3738 102.96 42.5187 99.004 51.2065C95.0594 59.87 87.4595 68.8837 77.1062 76.1385C66.7528 83.3933 55.6862 87.4596 46.1965 88.2097C36.6803 88.962 28.9524 86.3804 24.9154 80.6191C20.8784 74.8579 21.09 66.7129 25.0456 58.0252C28.9902 49.3616 36.5902 40.348 46.9435 33.0932C57.2968 25.8384 68.3634 21.7721 77.8531 21.0219C87.3693 20.2697 95.0972 22.8513 99.1343 28.6125Z" stroke="url(#paint0_linear_3_19)" stroke-width="2"/>
<path d="M42.1767 54.0991L34.7507 73.764C34.166 75.3123 33.8737 76.0865 34.2705 76.5378C34.6674 76.9892 35.4726 76.7983 37.083 76.4167L56.5508 71.8027" stroke="#8F00FF" stroke-width="2" stroke-linecap="round" stroke-linejoin="round"/>
<path d="M78.0117 56.9272L89.0096 37.6375C89.904 36.0688 90.3512 35.2845 89.9939 34.7671C89.6365 34.2498 88.7447 34.3903 86.9609 34.6713L64.4882 38.2119" stroke="#D6E714" stroke-width="2" stroke-linecap="round" stroke-linejoin="round"/>
<path d="M56.6475 33.8284L60.7033 76.7866" stroke="#8F00FF" stroke-width="2" stroke-linecap="round" stroke-linejoin="round"/>
<defs>
<linearGradient id="paint0_linear_3_19" x1="46.3696" y1="32.2742" x2="77.68" y2="76.9574" gradientUnits="userSpaceOnUse">
<stop stop-color="#D6E714"/>
<stop offset="0.5039" stop-color="#D6E714"/>
<stop offset="0.504" stop-color="#8F00FF"/>
<stop offset="1" stop-color="#8F00FF"/>
</linearGradient>
</defs>
</svg>
