<svg width="187" height="32" viewBox="0 0 187 32" fill="none" xmlns="http://www.w3.org/2000/svg">
<g filter="url(#filter0_d_4_2)">
<path d="M9.152 12.16H14.112V6.336H14.016L9.152 12.16ZM18.656 23.2L13.92 23.68C13.9627 22.784 14.0053 21.6747 14.048 20.352C14.0907 19.0293 14.112 17.5787 14.112 16H4.576V15.264C4.87467 14.9867 5.14133 14.7093 5.376 14.432C5.61067 14.1547 5.83467 13.8773 6.048 13.6L15.616 2.208C15.872 1.90933 16.1173 1.6 16.352 1.28C16.608 0.959999 16.8533 0.607999 17.088 0.223999H18.624L18.592 12.16H20.832V16H19.488C19.1467 16 18.912 16.1173 18.784 16.352C18.656 16.5867 18.592 16.896 18.592 17.28C18.592 18.2613 18.592 19.2533 18.592 20.256C18.6133 21.2587 18.6347 22.24 18.656 23.2ZM30.035 16.48C28.6483 16.48 27.411 16.1707 26.323 15.552C25.235 14.9333 24.3817 14.0587 23.763 12.928C23.1443 11.7973 22.835 10.4533 22.835 8.896C22.835 7.50933 23.091 6.31467 23.603 5.312C24.1363 4.288 24.819 3.44533 25.651 2.784C26.5043 2.12267 27.4323 1.632 28.435 1.312C29.459 0.970666 30.4617 0.799999 31.443 0.799999C32.1897 0.799999 33.0003 0.885333 33.875 1.056C34.7497 1.20533 35.443 1.46133 35.955 1.824V6.72H35.219C34.9417 5.09867 34.419 3.936 33.651 3.232C32.9043 2.528 32.115 2.176 31.283 2.176C30.323 2.176 29.523 2.656 28.883 3.616C28.2643 4.55467 27.955 5.84533 27.955 7.488C27.955 8.768 28.147 9.80267 28.531 10.592C28.915 11.36 29.4163 11.9253 30.035 12.288C30.675 12.6293 31.3683 12.8 32.115 12.8C32.6057 12.8 33.2137 12.6933 33.939 12.48C34.6643 12.2453 35.347 11.8293 35.987 11.232L36.499 11.744C35.9443 13.088 35.1657 14.2187 34.163 15.136C33.1603 16.032 31.7843 16.48 30.035 16.48ZM48.1293 9.216L38.2093 10.08L37.9853 7.488L47.9053 6.624L48.1293 9.216Z" fill="black"/>
<path d="M57.0038 16.48C55.6171 16.48 54.3798 16.1707 53.2918 15.552C52.2038 14.9333 51.3504 14.0587 50.7318 12.928C50.1131 11.7973 49.8038 10.4533 49.8038 8.896C49.8038 7.50933 50.0598 6.31467 50.5718 5.312C51.1051 4.288 51.7878 3.44533 52.6198 2.784C53.4731 2.12267 54.4011 1.632 55.4038 1.312C56.4278 0.970666 57.4304 0.799999 58.4118 0.799999C59.1584 0.799999 59.9691 0.885333 60.8438 1.056C61.7184 1.20533 62.4118 1.46133 62.9238 1.824V6.72H62.1878C61.9104 5.09867 61.3878 3.936 60.6198 3.232C59.8731 2.528 59.0838 2.176 58.2517 2.176C57.2918 2.176 56.4918 2.656 55.8518 3.616C55.2331 4.55467 54.9238 5.84533 54.9238 7.488C54.9238 8.768 55.1158 9.80267 55.4998 10.592C55.8838 11.36 56.3851 11.9253 57.0038 12.288C57.6438 12.6293 58.3371 12.8 59.0838 12.8C59.5744 12.8 60.1824 12.6933 60.9078 12.48C61.6331 12.2453 62.3158 11.8293 62.9558 11.232L63.4678 11.744C62.9131 13.088 62.1344 14.2187 61.1318 15.136C60.1291 16.032 58.7531 16.48 57.0038 16.48ZM73.594 0.799999C75.1513 0.799999 76.5167 1.12 77.69 1.76C78.8847 2.37867 79.8233 3.264 80.506 4.416C81.1887 5.568 81.53 6.912 81.53 8.448C81.53 10.1333 81.1353 11.5733 80.346 12.768C79.5567 13.9627 78.522 14.88 77.242 15.52C75.9833 16.16 74.618 16.48 73.146 16.48C71.61 16.48 70.2447 16.16 69.05 15.52C67.8553 14.88 66.9167 13.9947 66.234 12.864C65.5513 11.712 65.21 10.368 65.21 8.832C65.21 7.14667 65.6047 5.70667 66.394 4.512C67.1833 3.31733 68.2073 2.4 69.466 1.76C70.746 1.12 72.122 0.799999 73.594 0.799999ZM73.69 15.104C74.4793 15.104 75.13 14.656 75.642 13.76C76.154 12.864 76.41 11.4773 76.41 9.6C76.41 8.23467 76.2713 6.99733 75.994 5.888C75.7167 4.75733 75.322 3.86133 74.81 3.2C74.3193 2.51733 73.7327 2.176 73.05 2.176C72.2607 2.176 71.61 2.624 71.098 3.52C70.586 4.416 70.33 5.80267 70.33 7.68C70.33 9.04533 70.4687 10.2933 70.746 11.424C71.0233 12.5333 71.418 13.4293 71.93 14.112C72.442 14.7733 73.0287 15.104 73.69 15.104ZM83.716 16V15.264C84.0787 15.2427 84.3667 15.168 84.58 15.04C84.7933 14.912 84.9427 14.656 85.028 14.272C85.1133 13.8667 85.156 13.2693 85.156 12.48V5.12C85.156 4.8 85.092 4.58667 84.964 4.48C84.8573 4.37333 84.6867 4.32 84.452 4.32C84.196 4.32 83.8973 4.36267 83.556 4.448L83.236 3.712L89.892 0.607999L90.084 0.799999C90.0413 0.991999 89.988 1.39733 89.924 2.016C89.8813 2.63467 89.86 3.264 89.86 3.904H89.924C90.308 3.41333 90.7667 2.93333 91.3 2.464C91.8333 1.99467 92.4413 1.6 93.124 1.28C93.8067 0.959999 94.564 0.799999 95.396 0.799999C96.5693 0.799999 97.4653 1.056 98.084 1.568C98.7027 2.05867 99.076 2.848 99.204 3.936C99.588 3.44533 100.047 2.96533 100.58 2.496C101.113 2.00533 101.721 1.6 102.404 1.28C103.108 0.959999 103.865 0.799999 104.676 0.799999C105.999 0.799999 106.969 1.12 107.588 1.76C108.207 2.37867 108.516 3.38133 108.516 4.768V12.48C108.516 13.2693 108.569 13.8667 108.676 14.272C108.783 14.656 108.975 14.912 109.252 15.04C109.529 15.168 109.924 15.2427 110.436 15.264V16H102.276V15.264C102.639 15.2427 102.927 15.168 103.14 15.04C103.353 14.912 103.503 14.656 103.588 14.272C103.673 13.8667 103.716 13.2693 103.716 12.48V6.112C103.716 5.45067 103.588 4.93867 103.332 4.576C103.097 4.192 102.66 4 102.02 4C101.679 4 101.284 4.07467 100.836 4.224C100.388 4.352 99.8547 4.61867 99.236 5.024V12.48C99.236 13.2693 99.2893 13.8667 99.396 14.272C99.5027 14.656 99.6947 14.912 99.972 15.04C100.249 15.168 100.644 15.2427 101.156 15.264V16H92.996V15.264C93.3587 15.2427 93.6467 15.168 93.86 15.04C94.0733 14.912 94.2227 14.656 94.308 14.272C94.3933 13.8667 94.436 13.2693 94.436 12.48V6.112C94.436 5.45067 94.308 4.93867 94.052 4.576C93.8173 4.192 93.38 4 92.74 4C92.3987 4 92.004 4.07467 91.556 4.224C91.108 4.352 90.5747 4.61867 89.956 5.024V12.48C89.956 13.2693 89.9987 13.8667 90.084 14.272C90.1907 14.656 90.3613 14.912 90.596 15.04C90.8307 15.168 91.1507 15.2427 91.556 15.264V16H83.716ZM120.694 22.432V23.168H112.214V22.432C112.576 22.4107 112.864 22.336 113.078 22.208C113.291 22.08 113.44 21.8133 113.526 21.408C113.611 21.024 113.654 20.4373 113.654 19.648V5.12C113.654 4.8 113.59 4.58667 113.462 4.48C113.355 4.37333 113.184 4.32 112.95 4.32C112.694 4.32 112.395 4.36267 112.054 4.448L111.734 3.712L118.39 0.607999L118.582 0.799999C118.539 0.991999 118.486 1.39733 118.422 2.016C118.379 2.63467 118.358 3.264 118.358 3.904H118.422C118.827 3.02933 119.467 2.29333 120.342 1.696C121.238 1.09867 122.304 0.799999 123.542 0.799999C124.566 0.799999 125.515 1.09867 126.39 1.696C127.286 2.272 128 3.104 128.534 4.192C129.067 5.28 129.334 6.592 129.334 8.128C129.334 9.664 129.067 10.9653 128.534 12.032C128 13.0773 127.296 13.9307 126.422 14.592C125.568 15.2533 124.63 15.7333 123.606 16.032C122.582 16.3307 121.579 16.48 120.598 16.48C120.171 16.48 119.776 16.4693 119.414 16.448C119.072 16.4267 118.752 16.3947 118.454 16.352V19.648C118.454 20.4373 118.507 21.024 118.614 21.408C118.72 21.8133 118.934 22.08 119.254 22.208C119.595 22.336 120.075 22.4107 120.694 22.432ZM120.886 14.944C121.824 14.944 122.614 14.4533 123.254 13.472C123.894 12.4693 124.214 11.1467 124.214 9.504C124.214 7.648 123.894 6.272 123.254 5.376C122.614 4.45867 121.824 4 120.886 4C120.48 4 120.064 4.08533 119.638 4.256C119.211 4.40533 118.816 4.66133 118.454 5.024V13.536C119.051 14.4747 119.862 14.944 120.886 14.944ZM134.953 16.48C133.78 16.48 132.905 16.128 132.329 15.424C131.775 14.72 131.497 13.9093 131.497 12.992C131.497 11.584 132.137 10.4427 133.417 9.568C134.719 8.69333 136.724 7.89333 139.433 7.168V5.472C139.433 4.46933 139.22 3.75467 138.793 3.328C138.388 2.88 137.812 2.656 137.065 2.656C136.041 2.656 135.188 3.04 134.505 3.808C133.844 4.576 133.385 5.61067 133.129 6.912H132.393V2.304C133.119 1.94133 134.057 1.6 135.209 1.28C136.383 0.959999 137.652 0.799999 139.017 0.799999C142.708 0.799999 144.553 2.22933 144.553 5.088V12.064C144.553 12.5547 144.617 12.9387 144.745 13.216C144.873 13.472 145.129 13.6 145.513 13.6C145.727 13.6 145.961 13.5573 146.217 13.472C146.495 13.3653 146.783 13.1733 147.081 12.896L147.593 13.408C147.124 14.3893 146.505 15.1253 145.737 15.616C144.969 16.0853 144.095 16.32 143.113 16.32C142.068 16.32 141.257 16.1173 140.681 15.712C140.127 15.2853 139.732 14.6773 139.497 13.888H139.433C138.943 14.7413 138.292 15.392 137.481 15.84C136.671 16.2667 135.828 16.48 134.953 16.48ZM137.449 13.6C137.876 13.6 138.249 13.504 138.569 13.312C138.911 13.0987 139.199 12.864 139.433 12.608V8.448C138.452 8.72533 137.705 9.088 137.193 9.536C136.703 9.984 136.372 10.432 136.201 10.88C136.052 11.328 135.977 11.7013 135.977 12C135.977 12.448 136.105 12.832 136.361 13.152C136.617 13.4507 136.98 13.6 137.449 13.6ZM164.431 12.48C164.431 13.2693 164.484 13.8667 164.591 14.272C164.698 14.656 164.89 14.912 165.167 15.04C165.444 15.168 165.839 15.2427 166.351 15.264V16H158.191V15.264C158.554 15.2427 158.842 15.168 159.055 15.04C159.268 14.912 159.418 14.656 159.503 14.272C159.588 13.8667 159.631 13.2693 159.631 12.48V6.112C159.631 5.49333 159.535 4.992 159.343 4.608C159.151 4.20267 158.682 4 157.935 4C157.53 4 157.071 4.064 156.559 4.192C156.068 4.32 155.492 4.59733 154.831 5.024V12.48C154.831 13.2693 154.884 13.8667 154.991 14.272C155.098 14.656 155.29 14.912 155.567 15.04C155.844 15.168 156.239 15.2427 156.751 15.264V16H148.591V15.264C148.954 15.2427 149.242 15.168 149.455 15.04C149.668 14.912 149.818 14.656 149.903 14.272C149.988 13.8667 150.031 13.2693 150.031 12.48V5.12C150.031 4.8 149.967 4.58667 149.839 4.48C149.732 4.37333 149.562 4.32 149.327 4.32C149.071 4.32 148.772 4.36267 148.431 4.448L148.111 3.712L154.767 0.607999L154.959 0.799999C154.916 0.991999 154.863 1.39733 154.799 2.016C154.756 2.63467 154.735 3.264 154.735 3.904H154.831C155.258 3.41333 155.759 2.93333 156.335 2.464C156.911 1.99467 157.551 1.6 158.255 1.28C158.98 0.959999 159.759 0.799999 160.591 0.799999C161.914 0.799999 162.884 1.12 163.503 1.76C164.122 2.37867 164.431 3.38133 164.431 4.768V12.48ZM169.719 23.52C168.759 23.52 168.087 23.232 167.703 22.656C167.319 22.08 167.127 21.4187 167.127 20.672C167.127 20.3093 167.17 19.8827 167.255 19.392C167.341 18.9013 167.469 18.4107 167.639 17.92H168.375C168.525 18.7093 168.727 19.296 168.983 19.68C169.239 20.0853 169.645 20.288 170.199 20.288C170.946 20.288 171.65 19.872 172.311 19.04C172.973 18.2293 173.581 17.1093 174.135 15.68L168.791 4.48C168.471 3.776 168.205 3.264 167.991 2.944C167.778 2.60267 167.586 2.368 167.415 2.24C167.245 2.112 167.042 2.03733 166.807 2.016V1.28H174.903V2.016C174.37 2.03733 174.018 2.176 173.847 2.432C173.677 2.688 173.623 2.99733 173.687 3.36C173.751 3.72267 173.869 4.096 174.039 4.48L176.599 10.08H176.663L179.127 4.48C179.362 3.92533 179.373 3.392 179.159 2.88C178.967 2.34667 178.519 2.05867 177.815 2.016V1.28H182.967V2.016C182.477 2.05867 182.061 2.34667 181.719 2.88C181.378 3.392 181.09 3.92533 180.855 4.48L176.887 13.472C175.863 15.7973 174.967 17.696 174.199 19.168C173.453 20.6613 172.727 21.76 172.023 22.464C171.341 23.168 170.573 23.52 169.719 23.52Z" fill="#F64C72"/>
</g>
<defs>
<filter id="filter0_d_4_2" x="0.576" y="0.223999" width="186.391" height="31.456" filterUnits="userSpaceOnUse" color-interpolation-filters="sRGB">
<feFlood flood-opacity="0" result="BackgroundImageFix"/>
<feColorMatrix in="SourceAlpha" type="matrix" values="0 0 0 0 0 0 0 0 0 0 0 0 0 0 0 0 0 0 127 0" result="hardAlpha"/>
<feOffset dy="4"/>
<feGaussianBlur stdDeviation="2"/>
<feComposite in2="hardAlpha" operator="out"/>
<feColorMatrix type="matrix" values="0 0 0 0 0 0 0 0 0 0 0 0 0 0 0 0 0 0 0.25 0"/>
<feBlend mode="normal" in2="BackgroundImageFix" result="effect1_dropShadow_4_2"/>
<feBlend mode="normal" in="SourceGraphic" in2="effect1_dropShadow_4_2" result="shape"/>
</filter>
</defs>
</svg>
